<svg width="30" height="250" viewBox="0 0 56 511" fill="none" xmlns="http://www.w3.org/2000/svg">
<path d="M54.568 0.103999L56.568 0.103999L56.568 -1.896L54.568 -1.896L54.568 0.103999ZM1 0.103997L1 -1.896L-1 -1.896L-1 0.103997L1 0.103997ZM0.999999 16.88L-1 16.88L-1 18.88L0.999999 18.88L0.999999 16.88ZM18.856 16.88L20.856 16.88L20.856 14.88L18.856 14.88L18.856 16.88ZM42.4 16.88L44.4 16.88L44.4 14.88L42.4 14.88L42.4 16.88ZM30.88 16.88L30.88 14.88L28.88 14.88L28.88 16.88L30.88 16.88ZM16.856 40.28C16.856 50.0858 18.8946 56.8724 22.5096 61.2308C26.1828 65.6594 31.214 67.264 36.424 67.264L36.424 63.264C32.058 63.264 28.3052 61.9526 25.5884 58.6772C22.8134 55.3316 20.856 49.6262 20.856 40.28L16.856 40.28ZM36.424 67.264L37.144 67.264L37.144 63.264L36.424 63.264L36.424 67.264ZM37.144 67.264C42.4411 67.264 47.4547 65.7073 51.0769 61.2733C54.6292 56.9247 56.568 50.1337 56.568 40.28L52.568 40.28C52.568 49.7223 50.6908 55.4233 47.9791 58.7427C45.3372 61.9767 41.6389 63.264 37.144 63.264L37.144 67.264ZM56.568 40.28L56.568 0.103999L52.568 0.103999L52.568 40.28L56.568 40.28ZM54.568 -1.896L1 -1.896L1 2.104L54.568 2.104L54.568 -1.896ZM-1 0.103997L-1 16.88L3 16.88L3 0.103997L-1 0.103997ZM0.999999 18.88L18.856 18.88L18.856 14.88L0.999999 14.88L0.999999 18.88ZM16.856 16.88L16.856 40.28L20.856 40.28L20.856 16.88L16.856 16.88ZM40.4 16.88L40.4 39.992L44.4 39.992L44.4 16.88L40.4 16.88ZM40.4 39.992C40.4 42.5028 39.9207 43.9305 39.3398 44.696C38.8406 45.3538 38.0793 45.768 36.712 45.768L36.712 49.768C39.0167 49.768 41.0994 48.9943 42.5262 47.114C43.8713 45.3415 44.4 42.8812 44.4 39.992L40.4 39.992ZM36.712 45.768L36.496 45.768L36.496 49.768L36.712 49.768L36.712 45.768ZM36.496 45.768C35.1688 45.768 34.4215 45.3461 33.9231 44.6673C33.3413 43.8749 32.88 42.4312 32.88 39.992L28.88 39.992C28.88 42.8088 29.3907 45.2531 30.6989 47.0347C32.0905 48.9299 34.1512 49.768 36.496 49.768L36.496 45.768ZM32.88 39.992L32.88 16.88L28.88 16.88L28.88 39.992L32.88 39.992ZM30.88 18.88L42.4 18.88L42.4 14.88L30.88 14.88L30.88 18.88ZM0.999996 78.0384L0.999997 76.0384L-1 76.0384L-1 78.0384L0.999996 78.0384ZM0.999996 94.8144L-1 94.8144L-1 96.8144L0.999996 96.8144L0.999996 94.8144ZM22.096 94.8144L24.096 94.8144L24.096 92.8144L22.096 92.8144L22.096 94.8144ZM22.096 130.814L22.096 132.814L24.096 132.814L24.096 130.814L22.096 130.814ZM0.999994 130.814L0.999994 128.814L-1.00001 128.814L-1.00001 130.814L0.999994 130.814ZM0.999993 147.59L-1.00001 147.59L-1.00001 149.59L0.999993 149.59L0.999993 147.59ZM54.568 147.59L54.568 149.59L56.568 149.59L56.568 147.59L54.568 147.59ZM54.568 130.814L56.568 130.814L56.568 128.814L54.568 128.814L54.568 130.814ZM35.056 130.814L33.056 130.814L33.056 132.814L35.056 132.814L35.056 130.814ZM35.056 94.8144L35.056 92.8144L33.056 92.8144L33.056 94.8144L35.056 94.8144ZM54.568 94.8144L54.568 96.8144L56.568 96.8144L56.568 94.8144L54.568 94.8144ZM54.568 78.0384L56.568 78.0384L56.568 76.0384L54.568 76.0384L54.568 78.0384ZM-1 78.0384L-1 94.8144L3 94.8144L3 78.0384L-1 78.0384ZM0.999996 96.8144L22.096 96.8144L22.096 92.8144L0.999996 92.8144L0.999996 96.8144ZM20.096 94.8144L20.096 130.814L24.096 130.814L24.096 94.8144L20.096 94.8144ZM22.096 128.814L0.999994 128.814L0.999994 132.814L22.096 132.814L22.096 128.814ZM-1.00001 130.814L-1.00001 147.59L2.99999 147.59L2.99999 130.814L-1.00001 130.814ZM0.999993 149.59L54.568 149.59L54.568 145.59L0.999993 145.59L0.999993 149.59ZM56.568 147.59L56.568 130.814L52.568 130.814L52.568 147.59L56.568 147.59ZM54.568 128.814L35.056 128.814L35.056 132.814L54.568 132.814L54.568 128.814ZM37.056 130.814L37.056 94.8144L33.056 94.8144L33.056 130.814L37.056 130.814ZM35.056 96.8144L54.568 96.8144L54.568 92.8144L35.056 92.8144L35.056 96.8144ZM56.568 94.8144L56.568 78.0384L52.568 78.0384L52.568 94.8144L56.568 94.8144ZM54.568 76.0384L0.999997 76.0384L0.999996 80.0384L54.568 80.0384L54.568 76.0384ZM57.504 198.572C57.504 181.314 53.198 171.257 47.2297 165.546C41.2684 159.842 34.0316 158.844 29.008 158.844L29.008 162.844C33.5604 162.844 39.5716 163.754 44.4643 168.436C49.35 173.111 53.504 181.918 53.504 198.572L57.504 198.572ZM29.008 158.844L26.848 158.844L26.848 162.844L29.008 162.844L29.008 158.844ZM26.848 158.844C21.8942 158.844 14.5955 159.842 8.54819 165.535C2.48553 171.241 -1.93601 181.3 -1.93601 198.572L2.06399 198.572C2.06399 181.932 6.31846 173.127 11.2898 168.447C16.2765 163.753 22.3698 162.844 26.848 162.844L26.848 158.844ZM-1.93601 198.572L-1.93601 201.668L2.06399 201.668L2.06399 198.572L-1.93601 198.572ZM-1.93601 201.668C-1.93601 218.871 2.48694 228.91 8.54818 234.615C14.5932 240.305 21.8894 241.324 26.848 241.324L26.848 237.324C22.3746 237.324 16.2788 236.399 11.2898 231.703C6.31704 227.022 2.06399 218.233 2.06399 201.668L-1.93601 201.668ZM26.848 241.324L29.008 241.324L29.008 237.324L26.848 237.324L26.848 241.324ZM29.008 241.324C34.0417 241.324 41.274 240.286 47.231 234.576C53.1959 228.858 57.504 218.822 57.504 201.668L53.504 201.668C53.504 218.21 49.3521 227.002 44.463 231.688C39.566 236.382 33.5503 237.324 29.008 237.324L29.008 241.324ZM57.504 201.668L57.504 198.572L53.504 198.572L53.504 201.668L57.504 201.668ZM27.496 219.756C24.7934 219.756 21.8094 218.965 19.4665 216.339C17.0905 213.675 15.096 208.816 15.096 200.084L11.096 200.084C11.096 209.352 13.2055 215.329 16.4815 219.001C19.7905 222.711 24.0066 223.756 27.496 223.756L27.496 219.756ZM15.096 200.084C15.096 191.287 17.1408 186.436 19.5512 183.791C21.9342 181.177 24.9574 180.412 27.64 180.412L27.64 176.412C24.2026 176.412 19.9538 177.411 16.5948 181.097C13.2632 184.752 11.096 190.737 11.096 200.084L15.096 200.084ZM27.64 180.412L28.504 180.412L28.504 176.412L27.64 176.412L27.64 180.412ZM28.504 180.412C31.2122 180.412 34.0791 181.118 36.3187 183.659C38.6077 186.255 40.544 191.105 40.544 200.084L44.544 200.084C44.544 190.631 42.5203 184.645 39.3193 181.013C36.0689 177.326 31.9158 176.412 28.504 176.412L28.504 180.412ZM40.544 200.084C40.544 208.909 38.6121 213.77 36.3112 216.41C34.0556 218.998 31.1767 219.756 28.504 219.756L28.504 223.756C31.9512 223.756 36.0924 222.75 39.3268 219.038C42.5159 215.378 44.544 209.403 44.544 200.084L40.544 200.084ZM28.504 219.756L27.496 219.756L27.496 223.756L28.504 223.756L28.504 219.756ZM54.568 252.54L56.568 252.54L56.568 250.54L54.568 250.54L54.568 252.54ZM0.999989 252.54L0.999989 250.54L-1.00001 250.54L-1.00001 252.54L0.999989 252.54ZM0.999986 309.708L-1.00001 309.708L-1.00001 311.708L0.999986 311.708L0.999986 309.708ZM13.456 309.708L13.456 311.708L15.456 311.708L15.456 309.708L13.456 309.708ZM13.456 269.1L13.456 267.1L11.456 267.1L11.456 269.1L13.456 269.1ZM22.24 269.1L24.24 269.1L24.24 267.1L22.24 267.1L22.24 269.1ZM22.24 308.052L20.24 308.052L20.24 310.052L22.24 310.052L22.24 308.052ZM34.48 308.052L34.48 310.052L36.48 310.052L36.48 308.052L34.48 308.052ZM34.48 269.1L34.48 267.1L32.48 267.1L32.48 269.1L34.48 269.1ZM42.4 269.1L44.4 269.1L44.4 267.1L42.4 267.1L42.4 269.1ZM42.4 308.988L40.4 308.988L40.4 310.988L42.4 310.988L42.4 308.988ZM54.568 308.988L54.568 310.988L56.568 310.988L56.568 308.988L54.568 308.988ZM54.568 250.54L0.999989 250.54L0.999989 254.54L54.568 254.54L54.568 250.54ZM-1.00001 252.54L-1.00001 309.708L2.99999 309.708L2.99999 252.54L-1.00001 252.54ZM0.999986 311.708L13.456 311.708L13.456 307.708L0.999986 307.708L0.999986 311.708ZM15.456 309.708L15.456 269.1L11.456 269.1L11.456 309.708L15.456 309.708ZM13.456 271.1L22.24 271.1L22.24 267.1L13.456 267.1L13.456 271.1ZM20.24 269.1L20.24 308.052L24.24 308.052L24.24 269.1L20.24 269.1ZM22.24 310.052L34.48 310.052L34.48 306.052L22.24 306.052L22.24 310.052ZM36.48 308.052L36.48 269.1L32.48 269.1L32.48 308.052L36.48 308.052ZM34.48 271.1L42.4 271.1L42.4 267.1L34.48 267.1L34.48 271.1ZM40.4 269.1L40.4 308.988L44.4 308.988L44.4 269.1L40.4 269.1ZM42.4 310.988L54.568 310.988L54.568 306.988L42.4 306.988L42.4 310.988ZM56.568 308.988L56.568 252.54L52.568 252.54L52.568 308.988L56.568 308.988ZM54.568 323.865L56.568 323.865L56.568 321.865L54.568 321.865L54.568 323.865ZM0.999986 323.865L0.999986 321.865L-1.00001 321.865L-1.00001 323.865L0.999986 323.865ZM0.999985 340.425L-1.00002 340.425L-1.00002 342.425L0.999985 342.425L0.999985 340.425ZM36.496 340.425L37.9271 341.822L41.2435 338.425L36.496 338.425L36.496 340.425ZM0.999983 376.785L-0.431131 375.388L-1.00002 375.971L-1.00002 376.785L0.999983 376.785ZM0.999983 393.345L-1.00002 393.345L-1.00002 395.345L0.999983 395.345L0.999983 393.345ZM54.568 393.345L54.568 395.345L56.568 395.345L56.568 393.345L54.568 393.345ZM54.568 376.785L56.568 376.785L56.568 374.785L54.568 374.785L54.568 376.785ZM20.872 376.785L19.4473 375.381L16.0938 378.785L20.872 378.785L20.872 376.785ZM54.568 342.585L55.9927 343.989L56.568 343.405L56.568 342.585L54.568 342.585ZM54.568 321.865L0.999986 321.865L0.999986 325.865L54.568 325.865L54.568 321.865ZM-1.00001 323.865L-1.00002 340.425L2.99998 340.425L2.99999 323.865L-1.00001 323.865ZM0.999985 342.425L36.496 342.425L36.496 338.425L0.999985 338.425L0.999985 342.425ZM35.0649 339.028L-0.431131 375.388L2.4311 378.182L37.9271 341.822L35.0649 339.028ZM-1.00002 376.785L-1.00002 393.345L2.99998 393.345L2.99998 376.785L-1.00002 376.785ZM0.999983 395.345L54.568 395.345L54.568 391.345L0.999983 391.345L0.999983 395.345ZM56.568 393.345L56.568 376.785L52.568 376.785L52.568 393.345L56.568 393.345ZM54.568 374.785L20.872 374.785L20.872 378.785L54.568 378.785L54.568 374.785ZM22.2967 378.189L55.9927 343.989L53.1433 341.181L19.4473 375.381L22.2967 378.189ZM56.568 342.585L56.568 323.865L52.568 323.865L52.568 342.585L56.568 342.585ZM54.568 425.536L54.568 427.536L56.568 427.536L56.568 425.536L54.568 425.536ZM54.568 408.76L56.568 408.76L56.568 406.76L54.568 406.76L54.568 408.76ZM0.999982 408.76L0.999982 406.76L-1.00002 406.76L-1.00002 408.76L0.999982 408.76ZM0.999981 425.536L-1.00002 425.536L-1.00002 427.536L0.999981 427.536L0.999981 425.536ZM56.568 425.536L56.568 408.76L52.568 408.76L52.568 425.536L56.568 425.536ZM54.568 406.76L0.999982 406.76L0.999982 410.76L54.568 410.76L54.568 406.76ZM-1.00002 408.76L-1.00002 425.536L2.99998 425.536L2.99998 408.76L-1.00002 408.76ZM0.999981 427.536L54.568 427.536L54.568 423.536L0.999981 423.536L0.999981 427.536ZM0.99998 456.761L-1.00002 456.761L-1.00002 457.602L-0.398679 458.191L0.99998 456.761ZM17.632 473.033L19.0369 474.457L20.4854 473.027L19.0306 471.604L17.632 473.033ZM0.999978 489.449L-0.404959 488.026L-1.00002 488.613L-1.00002 489.449L0.999978 489.449ZM0.999978 510.545L-1.00002 510.545L-1.00002 515.231L2.38354 511.989L0.999978 510.545ZM28.432 484.265L29.8344 482.839L28.4503 481.478L27.0484 482.821L28.432 484.265ZM54.568 509.969L53.1656 511.395L56.568 514.741L56.568 509.969L54.568 509.969ZM54.568 489.377L56.568 489.377L56.568 488.527L55.9555 487.937L54.568 489.377ZM38.872 474.257L37.4844 472.817L35.9892 474.257L37.4844 475.698L38.872 474.257ZM54.568 459.137L55.9555 460.578L56.568 459.988L56.568 459.137L54.568 459.137ZM54.568 436.673L56.568 436.673L56.568 431.9L53.1654 435.247L54.568 436.673ZM28.072 462.737L26.6692 464.163L28.0717 465.543L29.4745 464.163L28.072 462.737ZM0.999981 436.097L2.40277 434.672L-1.00002 431.323L-1.00002 436.097L0.999981 436.097ZM-0.398679 458.191L16.2333 474.463L19.0306 471.604L2.39864 455.332L-0.398679 458.191ZM16.227 471.61L-0.404959 488.026L2.40492 490.873L19.0369 474.457L16.227 471.61ZM-1.00002 489.449L-1.00002 510.545L2.99998 510.545L2.99998 489.449L-1.00002 489.449ZM2.38354 511.989L29.8155 485.709L27.0484 482.821L-0.383583 509.101L2.38354 511.989ZM27.0296 485.691L53.1656 511.395L55.9704 508.543L29.8344 482.839L27.0296 485.691ZM56.568 509.969L56.568 489.377L52.568 489.377L52.568 509.969L56.568 509.969ZM55.9555 487.937L40.2595 472.817L37.4844 475.698L53.1804 490.818L55.9555 487.937ZM40.2595 475.698L55.9555 460.578L53.1804 457.697L37.4844 472.817L40.2595 475.698ZM56.568 459.137L56.568 436.673L52.568 436.673L52.568 459.137L56.568 459.137ZM53.1654 435.247L26.6694 461.311L29.4745 464.163L55.9705 438.099L53.1654 435.247ZM29.4748 461.312L2.40277 434.672L-0.402813 437.523L26.6692 464.163L29.4748 461.312ZM-1.00002 436.097L-1.00002 456.761L2.99998 456.761L2.99998 436.097L-1.00002 436.097Z" fill="white"/>
</svg>
