<svg width="30" height="260" viewBox="0 0 56 311" fill="none" xmlns="http://www.w3.org/2000/svg">
<path d="M34.912 39.752L36.9117 39.7877L36.9117 39.784L34.912 39.752ZM35.056 30.752L33.0564 30.7125L33.0563 30.72L35.056 30.752ZM37.864 48.896L37.5124 46.9271L35.864 47.2215L35.864 48.896L37.864 48.896ZM37.864 66.32L35.864 66.32L35.864 68.32L37.864 68.32L37.864 66.32ZM22.816 27.224L20.8168 27.1665L20.8165 27.1771L22.816 27.224ZM22.6 36.44L24.5992 36.4981L24.5995 36.4869L22.6 36.44ZM20.008 17.864L20.141 19.8596L22.008 19.7351L22.008 17.864L20.008 17.864ZM20.008 0.367998L22.008 0.367998L22.008 -1.632L20.008 -1.632L20.008 0.367998ZM-1.936 36.656C-1.936 50.261 0.339505 58.6468 4.10931 63.6531C7.99664 68.8154 13.1993 70.048 17.992 70.048L17.992 66.048C13.9287 66.048 10.1674 65.0486 7.30468 61.2469C4.32449 57.2892 2.064 49.979 2.064 36.656L-1.936 36.656ZM17.992 70.048L19 70.048L19 66.048L17.992 66.048L17.992 70.048ZM19 70.048C21.9192 70.048 24.5717 69.4897 26.8936 68.2149C29.2249 66.935 31.0974 65.0016 32.5537 62.4519C35.4157 57.4409 36.7304 49.9396 36.9117 39.7877L32.9123 39.7163C32.7336 49.7244 31.4203 56.3711 29.0803 60.4681C27.9356 62.4724 26.5636 63.833 24.9686 64.7086C23.3643 65.5893 21.4088 66.048 19 66.048L19 70.048ZM36.9117 39.784L37.0557 30.784L33.0563 30.72L32.9123 39.72L36.9117 39.784ZM37.0556 30.7915C37.163 25.3498 37.7436 22.6355 38.377 21.3279C38.6672 20.7287 38.91 20.5501 39.0122 20.4903C39.1217 20.4263 39.2937 20.368 39.664 20.368L39.664 16.368C38.8823 16.368 37.9293 16.4897 36.9926 17.0377C36.0485 17.5899 35.3238 18.4553 34.777 19.5841C33.7364 21.7325 33.165 25.2102 33.0564 30.7125L37.0556 30.7915ZM39.664 20.368C40.1249 20.368 40.3042 20.422 40.4091 20.4784C40.4812 20.5172 40.7222 20.6635 41.0192 21.3008C41.6794 22.7176 42.272 25.7924 42.272 32.264L46.272 32.264C46.272 25.7756 45.7126 21.9024 44.6448 19.6112C44.0778 18.3945 43.3108 17.4968 42.3029 16.9551C41.3278 16.431 40.3551 16.368 39.664 16.368L39.664 20.368ZM42.272 32.264L42.272 33.416L46.272 33.416L46.272 32.264L42.272 32.264ZM42.272 33.416C42.272 40.2972 41.1827 43.6081 40.1488 45.1935C39.6538 45.9524 39.1656 46.3262 38.7737 46.5355C38.3627 46.755 37.9621 46.8468 37.5124 46.9271L38.2156 50.8649C38.7739 50.7652 39.6783 50.587 40.6578 50.064C41.6564 49.5308 42.6442 48.6896 43.4992 47.3785C45.1653 44.8239 46.272 40.5748 46.272 33.416L42.272 33.416ZM35.864 48.896L35.864 66.32L39.864 66.32L39.864 48.896L35.864 48.896ZM37.864 68.32L38.584 68.32L38.584 64.32L37.864 64.32L37.864 68.32ZM38.584 68.32C43.1583 68.32 48.0516 66.646 51.7071 61.4181C55.2712 56.3208 57.504 48.0595 57.504 35.216L53.504 35.216C53.504 47.7165 51.3088 55.0072 48.4289 59.1259C45.6404 63.1141 42.0737 64.32 38.584 64.32L38.584 68.32ZM57.504 35.216L57.504 30.248L53.504 30.248L53.504 35.216L57.504 35.216ZM57.504 30.248C57.504 17.8892 55.4033 10.0856 51.9457 5.33764C48.3806 0.442017 43.6003 -0.912001 39.16 -0.912001L39.16 3.088C42.7117 3.088 46.1034 4.10998 48.7123 7.69236C51.4287 11.4224 53.504 18.1988 53.504 30.248L57.504 30.248ZM39.16 -0.912001L38.512 -0.912002L38.512 3.088L39.16 3.088L39.16 -0.912001ZM38.512 -0.912002C33.7667 -0.912002 29.3348 0.871887 26.1068 5.50701C22.9736 10.006 21.1094 17.0003 20.8168 27.1665L24.8152 27.2815C25.0986 17.4317 26.9064 11.358 29.3892 7.79299C31.7772 4.36411 34.9053 3.088 38.512 3.088L38.512 -0.912002ZM20.8165 27.1771L20.6005 36.3931L24.5995 36.4869L24.8155 27.2709L20.8165 27.1771ZM20.6008 36.3819C20.4206 42.5836 19.838 45.7101 19.1145 47.2564C18.7858 47.9588 18.4941 48.1864 18.3226 48.2824C18.124 48.3936 17.8137 48.48 17.2 48.48L17.2 52.48C18.1343 52.48 19.228 52.3594 20.2759 51.7731C21.3509 51.1716 22.1482 50.2112 22.7375 48.9516C23.85 46.5739 24.4194 42.6804 24.5992 36.4981L20.6008 36.3819ZM17.2 48.48C16.6546 48.48 16.3192 48.4026 16.063 48.2612C15.8263 48.1304 15.4619 47.837 15.0708 47.0416C14.2276 45.3265 13.512 41.8088 13.512 34.784L9.512 34.784C9.512 41.8712 10.2004 46.2015 11.4812 48.8064C12.1521 50.171 13.0297 51.1556 14.1295 51.7628C15.2098 52.3594 16.3054 52.48 17.2 52.48L17.2 48.48ZM13.512 34.784L13.512 33.776L9.512 33.776L9.512 34.784L13.512 34.784ZM13.512 33.776C13.512 27.0603 14.7987 23.6584 16.1271 21.9404C17.379 20.3216 18.869 19.9444 20.141 19.8596L19.875 15.8684C17.907 15.9996 15.149 16.6664 12.9629 19.4936C10.8533 22.2216 9.512 26.6677 9.512 33.776L13.512 33.776ZM22.008 17.864L22.008 0.367998L18.008 0.367998L18.008 17.864L22.008 17.864ZM20.008 -1.632L19.216 -1.632L19.216 2.368L20.008 2.368L20.008 -1.632ZM19.216 -1.632C15.3833 -1.632 9.94094 -0.743378 5.51049 4.15666C1.13045 9.00094 -1.936 17.4145 -1.936 31.688L2.064 31.688C2.064 17.8815 5.04555 10.6351 8.47751 6.83934C11.8591 3.09937 15.9927 2.368 19.216 2.368L19.216 -1.632ZM-1.936 31.688L-1.936 36.656L2.064 36.656L2.064 31.688L-1.936 31.688ZM57.504 116.536C57.504 99.2783 53.198 89.221 47.2297 83.51C41.2684 77.8057 34.0316 76.8081 29.008 76.8081L29.008 80.8081C33.5604 80.8081 39.5716 81.7184 44.4643 86.4001C49.35 91.0751 53.504 99.8818 53.504 116.536L57.504 116.536ZM29.008 76.8081L26.848 76.8081L26.848 80.8081L29.008 80.8081L29.008 76.8081ZM26.848 76.8081C21.8942 76.8081 14.5955 77.8066 8.54819 83.4987C2.48553 89.2053 -1.936 99.264 -1.936 116.536L2.064 116.536C2.064 99.8961 6.31846 91.0908 11.2898 86.4114C16.2765 81.7175 22.3698 80.8081 26.848 80.8081L26.848 76.8081ZM-1.936 116.536L-1.936 119.632L2.064 119.632L2.064 116.536L-1.936 116.536ZM-1.936 119.632C-1.936 136.835 2.48695 146.874 8.54819 152.579C14.5932 158.269 21.8894 159.288 26.848 159.288L26.848 155.288C22.3746 155.288 16.2788 154.363 11.2898 149.667C6.31704 144.986 2.064 136.197 2.064 119.632L-1.936 119.632ZM26.848 159.288L29.008 159.288L29.008 155.288L26.848 155.288L26.848 159.288ZM29.008 159.288C34.0417 159.288 41.274 158.25 47.231 152.54C53.1959 146.822 57.504 136.786 57.504 119.632L53.504 119.632C53.504 136.174 49.3521 144.966 44.463 149.652C39.566 154.346 33.5503 155.288 29.008 155.288L29.008 159.288ZM57.504 119.632L57.504 116.536L53.504 116.536L53.504 119.632L57.504 119.632ZM27.496 137.72C24.7934 137.72 21.8095 136.929 19.4665 134.303C17.0905 131.639 15.096 126.78 15.096 118.048L11.096 118.048C11.096 127.316 13.2055 133.293 16.4815 136.965C19.7905 140.675 24.0066 141.72 27.496 141.72L27.496 137.72ZM15.096 118.048C15.096 109.251 17.1408 104.4 19.5512 101.755C21.9342 99.1407 24.9574 98.3761 27.64 98.3761L27.64 94.3761C24.2026 94.3761 19.9538 95.3754 16.5948 99.0608C13.2632 102.716 11.096 108.701 11.096 118.048L15.096 118.048ZM27.64 98.3761L28.504 98.3761L28.504 94.3761L27.64 94.3761L27.64 98.3761ZM28.504 98.3761C31.2122 98.3761 34.0791 99.0819 36.3187 101.623C38.6077 104.219 40.544 109.069 40.544 118.048L44.544 118.048C44.544 108.595 42.5203 102.609 39.3193 98.9775C36.0689 95.2902 31.9158 94.3761 28.504 94.3761L28.504 98.3761ZM40.544 118.048C40.544 126.873 38.6121 131.734 36.3112 134.374C34.0556 136.962 31.1767 137.72 28.504 137.72L28.504 141.72C31.9512 141.72 36.0924 140.714 39.3268 137.002C42.5159 133.342 44.544 127.367 44.544 118.048L40.544 118.048ZM28.504 137.72L27.496 137.72L27.496 141.72L28.504 141.72L28.504 137.72ZM0.999991 210.342L-1.00001 210.342L-1.00001 211.597L0.128866 212.143L0.999991 210.342ZM54.568 236.262L53.6969 238.063L56.568 239.452L56.568 236.262L54.568 236.262ZM54.568 218.839L56.568 218.839L56.568 217.568L55.4185 217.028L54.568 218.839ZM15.184 200.335L14.2883 198.546L10.6034 200.392L14.3335 202.145L15.184 200.335ZM54.568 180.606L55.4637 182.395L56.568 181.842L56.568 180.606L54.568 180.606ZM54.568 161.598L56.568 161.598L56.568 158.304L53.6451 159.824L54.568 161.598ZM0.999992 189.462L0.0770639 187.688L-1.00001 188.248L-1.00001 189.462L0.999992 189.462ZM0.128866 212.143L53.6969 238.063L55.4391 234.462L1.87112 208.542L0.128866 212.143ZM56.568 236.262L56.568 218.839L52.568 218.838L52.568 236.262L56.568 236.262ZM55.4185 217.028L16.0345 198.524L14.3335 202.145L53.7175 220.649L55.4185 217.028ZM16.0797 202.123L55.4637 182.395L53.6723 178.818L14.2883 198.546L16.0797 202.123ZM56.568 180.606L56.568 161.598L52.568 161.598L52.568 180.606L56.568 180.606ZM53.6451 159.824L0.0770639 187.688L1.92292 191.237L55.4909 163.373L53.6451 159.824ZM-1.00001 189.462L-1.00001 210.342L2.99999 210.342L2.99999 189.462L-1.00001 189.462ZM22.888 280.944L20.888 280.944L20.888 284.227L23.8053 282.721L22.888 280.944ZM22.888 260.64L23.7747 258.847L20.888 257.42L20.888 260.64L22.888 260.64ZM42.976 270.576L43.8933 272.353L47.4103 270.538L43.8627 268.783L42.976 270.576ZM0.999987 292.176L0.0847041 290.398L-1.00001 290.956L-1.00001 292.176L0.999987 292.176ZM0.999986 310.248L-1.00001 310.248L-1.00001 313.586L1.94338 312.012L0.999986 310.248ZM54.568 281.592L55.5114 283.356L56.568 282.79L56.568 281.592L54.568 281.592ZM54.568 259.848L56.568 259.848L56.568 258.618L55.4701 258.063L54.568 259.848ZM0.99999 232.776L1.90209 230.991L-1.00001 229.524L-1.00001 232.776L0.99999 232.776ZM0.999989 249.84L-1.00001 249.84L-1.00001 251.084L0.116131 251.634L0.999989 249.84ZM10.792 254.664L12.792 254.664L12.792 253.42L11.6758 252.87L10.792 254.664ZM10.792 287.136L11.7073 288.914L12.792 288.356L12.792 287.136L10.792 287.136ZM24.888 280.944L24.888 260.64L20.888 260.64L20.888 280.944L24.888 280.944ZM22.0013 262.433L42.0893 272.369L43.8627 268.783L23.7747 258.847L22.0013 262.433ZM42.0587 268.799L21.9707 279.167L23.8053 282.721L43.8933 272.353L42.0587 268.799ZM-1.00001 292.176L-1.00001 310.248L2.99999 310.248L2.99999 292.176L-1.00001 292.176ZM1.94338 312.012L55.5114 283.356L53.6246 279.829L0.0565966 308.485L1.94338 312.012ZM56.568 281.592L56.568 259.848L52.568 259.848L52.568 281.592L56.568 281.592ZM55.4701 258.063L1.90209 230.991L0.0978901 234.561L53.6659 261.633L55.4701 258.063ZM-1.00001 232.776L-1.00001 249.84L2.99999 249.84L2.99999 232.776L-1.00001 232.776ZM0.116131 251.634L9.90813 256.458L11.6758 252.87L1.88385 248.046L0.116131 251.634ZM8.79199 254.664L8.79199 287.136L12.792 287.136L12.792 254.664L8.79199 254.664ZM9.8767 285.358L0.0847041 290.398L1.91527 293.954L11.7073 288.914L9.8767 285.358Z" fill="white"/>
</svg>
