<svg width="1134" height="457" viewBox="0 0 1134 457" fill="none" xmlns="http://www.w3.org/2000/svg">
<g opacity="0.5">
<rect y="388.656" width="36.1268" height="32.9369" fill="#1F2326"/>
<rect y="426.122" width="36.1268" height="3.29369" fill="#1F2326"/>
<path d="M7.22534 405.056V396.89L21.6513 413.359H14.4383L7.22534 405.056Z" fill="#FF4656"/>
<path d="M26.4847 407.846H19.4204L28.9014 396.89V405.056L26.4847 407.846Z" fill="#FF4656"/>
</g>
<rect opacity="0.5" x="658" y="365" width="4" height="4" fill="#1F2326"/>
<rect opacity="0.5" x="626" y="314" width="36" height="4" fill="#1F2326"/>
<rect opacity="0.5" x="658" y="99" width="4" height="3" fill="#1F2326"/>
<rect opacity="0.5" x="900" y="194" width="4" height="4" fill="#1F2326"/>
<rect opacity="0.5" x="644" y="48" width="12" height="3" fill="#1F2326"/>
<rect opacity="0.5" x="330" y="7" width="19" height="16" fill="#1F2326"/>
<rect opacity="0.5" x="1115" y="434" width="19" height="16" fill="#1F2326"/>
<rect opacity="0.5" x="130.508" y="6.99908" width="3.61268" height="3.29369" fill="#1F2326"/>
<rect opacity="0.5" x="144.958" y="6.99908" width="3.61268" height="3.29369" fill="#1F2326"/>
<rect opacity="0.5" x="973.616" y="453.706" width="3.61268" height="3.29369" fill="#1F2326"/>
<rect opacity="0.5" x="988.067" y="453.706" width="3.61268" height="3.29369" fill="#1F2326"/>
<rect opacity="0.5" x="905" y="130" width="18" height="16" fill="#1F2326"/>
<rect opacity="0.5" x="1" y="453" width="104" height="4" fill="#1F2326"/>
<rect opacity="0.5" x="831" width="104" height="4" fill="#1F2326"/>
<rect opacity="0.5" x="392" y="403" width="19" height="17" fill="#1F2326"/>
<rect opacity="0.5" x="0.903198" y="149.863" width="3.61268" height="3.29369" fill="#1F2326"/>
<rect opacity="0.5" x="960" y="264" width="27" height="2" fill="#1F2326"/>
<rect opacity="0.5" x="1" y="48" width="18" height="3" fill="#1F2326"/>
</svg>
