<svg width="40" height="250" viewBox="0 0 56 303" fill="none" xmlns="http://www.w3.org/2000/svg">
<path d="M34.912 39.752L36.9117 39.7877L36.9117 39.784L34.912 39.752ZM35.056 30.752L33.0564 30.7125L33.0563 30.72L35.056 30.752ZM37.864 48.896L37.5124 46.9271L35.864 47.2215L35.864 48.896L37.864 48.896ZM37.864 66.32L35.864 66.32L35.864 68.32L37.864 68.32L37.864 66.32ZM22.816 27.224L20.8168 27.1665L20.8165 27.1771L22.816 27.224ZM22.6 36.44L24.5992 36.4981L24.5995 36.4869L22.6 36.44ZM20.008 17.864L20.141 19.8596L22.008 19.7351L22.008 17.864L20.008 17.864ZM20.008 0.367998L22.008 0.367998L22.008 -1.632L20.008 -1.632L20.008 0.367998ZM-1.936 36.656C-1.936 50.261 0.339505 58.6468 4.10931 63.6531C7.99664 68.8154 13.1993 70.048 17.992 70.048L17.992 66.048C13.9287 66.048 10.1674 65.0486 7.30468 61.2469C4.32449 57.2892 2.064 49.979 2.064 36.656L-1.936 36.656ZM17.992 70.048L19 70.048L19 66.048L17.992 66.048L17.992 70.048ZM19 70.048C21.9192 70.048 24.5717 69.4897 26.8936 68.2149C29.2249 66.935 31.0974 65.0016 32.5537 62.4519C35.4157 57.4409 36.7304 49.9396 36.9117 39.7877L32.9123 39.7163C32.7336 49.7244 31.4203 56.3711 29.0803 60.4681C27.9356 62.4724 26.5636 63.833 24.9686 64.7086C23.3643 65.5893 21.4088 66.048 19 66.048L19 70.048ZM36.9117 39.784L37.0557 30.784L33.0563 30.72L32.9123 39.72L36.9117 39.784ZM37.0556 30.7915C37.163 25.3498 37.7436 22.6355 38.377 21.3279C38.6672 20.7287 38.91 20.5501 39.0122 20.4903C39.1217 20.4263 39.2937 20.368 39.664 20.368L39.664 16.368C38.8823 16.368 37.9293 16.4897 36.9926 17.0377C36.0485 17.5899 35.3238 18.4553 34.777 19.5841C33.7364 21.7325 33.165 25.2102 33.0564 30.7125L37.0556 30.7915ZM39.664 20.368C40.1249 20.368 40.3042 20.422 40.4091 20.4784C40.4812 20.5172 40.7222 20.6635 41.0192 21.3008C41.6794 22.7176 42.272 25.7924 42.272 32.264L46.272 32.264C46.272 25.7756 45.7126 21.9024 44.6448 19.6112C44.0778 18.3945 43.3108 17.4968 42.3029 16.9551C41.3278 16.431 40.3551 16.368 39.664 16.368L39.664 20.368ZM42.272 32.264L42.272 33.416L46.272 33.416L46.272 32.264L42.272 32.264ZM42.272 33.416C42.272 40.2972 41.1827 43.6081 40.1488 45.1935C39.6538 45.9524 39.1656 46.3262 38.7737 46.5355C38.3627 46.755 37.9621 46.8468 37.5124 46.9271L38.2156 50.8649C38.7739 50.7652 39.6783 50.587 40.6578 50.064C41.6564 49.5308 42.6442 48.6896 43.4992 47.3785C45.1653 44.8239 46.272 40.5748 46.272 33.416L42.272 33.416ZM35.864 48.896L35.864 66.32L39.864 66.32L39.864 48.896L35.864 48.896ZM37.864 68.32L38.584 68.32L38.584 64.32L37.864 64.32L37.864 68.32ZM38.584 68.32C43.1583 68.32 48.0516 66.646 51.7071 61.4181C55.2712 56.3208 57.504 48.0595 57.504 35.216L53.504 35.216C53.504 47.7165 51.3088 55.0072 48.4289 59.1259C45.6404 63.1141 42.0737 64.32 38.584 64.32L38.584 68.32ZM57.504 35.216L57.504 30.248L53.504 30.248L53.504 35.216L57.504 35.216ZM57.504 30.248C57.504 17.8892 55.4033 10.0856 51.9457 5.33764C48.3806 0.442017 43.6003 -0.912001 39.16 -0.912001L39.16 3.088C42.7117 3.088 46.1034 4.10998 48.7123 7.69236C51.4287 11.4224 53.504 18.1988 53.504 30.248L57.504 30.248ZM39.16 -0.912001L38.512 -0.912002L38.512 3.088L39.16 3.088L39.16 -0.912001ZM38.512 -0.912002C33.7667 -0.912002 29.3348 0.871887 26.1068 5.50701C22.9736 10.006 21.1094 17.0003 20.8168 27.1665L24.8152 27.2815C25.0986 17.4317 26.9064 11.358 29.3892 7.79299C31.7772 4.36411 34.9053 3.088 38.512 3.088L38.512 -0.912002ZM20.8165 27.1771L20.6005 36.3931L24.5995 36.4869L24.8155 27.2709L20.8165 27.1771ZM20.6008 36.3819C20.4206 42.5836 19.838 45.7101 19.1145 47.2564C18.7858 47.9588 18.4941 48.1864 18.3226 48.2824C18.124 48.3936 17.8137 48.48 17.2 48.48L17.2 52.48C18.1343 52.48 19.228 52.3594 20.2759 51.7731C21.3509 51.1716 22.1482 50.2112 22.7375 48.9516C23.85 46.5739 24.4194 42.6804 24.5992 36.4981L20.6008 36.3819ZM17.2 48.48C16.6546 48.48 16.3192 48.4026 16.063 48.2612C15.8263 48.1304 15.4619 47.837 15.0708 47.0416C14.2276 45.3265 13.512 41.8088 13.512 34.784L9.512 34.784C9.512 41.8712 10.2004 46.2015 11.4812 48.8064C12.1521 50.171 13.0297 51.1556 14.1295 51.7628C15.2098 52.3594 16.3054 52.48 17.2 52.48L17.2 48.48ZM13.512 34.784L13.512 33.776L9.512 33.776L9.512 34.784L13.512 34.784ZM13.512 33.776C13.512 27.0603 14.7987 23.6584 16.1271 21.9404C17.379 20.3216 18.869 19.9444 20.141 19.8596L19.875 15.8684C17.907 15.9996 15.149 16.6664 12.9629 19.4936C10.8533 22.2216 9.512 26.6677 9.512 33.776L13.512 33.776ZM22.008 17.864L22.008 0.367998L18.008 0.367998L18.008 17.864L22.008 17.864ZM20.008 -1.632L19.216 -1.632L19.216 2.368L20.008 2.368L20.008 -1.632ZM19.216 -1.632C15.3833 -1.632 9.94094 -0.743378 5.51049 4.15666C1.13045 9.00094 -1.936 17.4145 -1.936 31.688L2.064 31.688C2.064 17.8815 5.04555 10.6351 8.47751 6.83934C11.8591 3.09937 15.9927 2.368 19.216 2.368L19.216 -1.632ZM-1.936 31.688L-1.936 36.656L2.064 36.656L2.064 31.688L-1.936 31.688ZM22.888 122.193L20.888 122.193L20.888 125.475L23.8053 123.97L22.888 122.193ZM22.888 101.889L23.7747 100.096L20.888 98.668L20.888 101.889L22.888 101.889ZM42.976 111.825L43.8933 113.602L47.4103 111.787L43.8627 110.032L42.976 111.825ZM0.999994 133.425L0.084711 131.646L-1.00001 132.205L-1.00001 133.425L0.999994 133.425ZM0.999993 151.497L-1.00001 151.497L-1.00001 154.835L1.94338 153.26L0.999993 151.497ZM54.568 122.841L55.5114 124.604L56.568 124.039L56.568 122.841L54.568 122.841ZM54.568 101.097L56.568 101.097L56.568 99.8664L55.4701 99.3116L54.568 101.097ZM0.999997 74.0246L1.9021 72.2396L-1 70.7729L-1 74.0246L0.999997 74.0246ZM0.999996 91.0886L-1 91.0886L-1 92.3328L0.116138 92.8827L0.999996 91.0886ZM10.792 95.9126L12.792 95.9126L12.792 94.6683L11.6759 94.1185L10.792 95.9126ZM10.792 128.385L11.7073 130.163L12.792 129.605L12.792 128.385L10.792 128.385ZM24.888 122.193L24.888 101.889L20.888 101.889L20.888 122.193L24.888 122.193ZM22.0013 103.681L42.0893 113.617L43.8627 110.032L23.7747 100.096L22.0013 103.681ZM42.0587 110.047L21.9707 120.415L23.8053 123.97L43.8933 113.602L42.0587 110.047ZM-1.00001 133.425L-1.00001 151.497L2.99999 151.497L2.99999 133.425L-1.00001 133.425ZM1.94338 153.26L55.5114 124.604L53.6246 121.077L0.0566035 149.733L1.94338 153.26ZM56.568 122.841L56.568 101.097L52.568 101.097L52.568 122.841L56.568 122.841ZM55.4701 99.3116L1.9021 72.2396L0.097897 75.8096L53.6659 102.882L55.4701 99.3116ZM-1 74.0246L-1 91.0886L3 91.0886L3 74.0246L-1 74.0246ZM0.116138 92.8827L9.90814 97.7067L11.6759 94.1185L1.88385 89.2945L0.116138 92.8827ZM8.792 95.9126L8.79199 128.385L12.792 128.385L12.792 95.9126L8.792 95.9126ZM9.87671 126.606L0.084711 131.646L1.91528 135.203L11.7073 130.163L9.87671 126.606ZM9.35199 218.196L10.1254 220.04L13.0998 218.793L10.6603 216.683L9.35199 218.196ZM0.99999 220.356L0.779127 218.368L-1.00001 218.565L-1.00001 220.356L0.99999 220.356ZM0.99999 230.436L-1.00001 230.436L-1.00001 232.436L0.99999 232.436L0.99999 230.436ZM31.024 230.436L31.024 232.436L33.024 232.436L33.024 230.436L31.024 230.436ZM31.024 192.708L33.024 192.708L33.024 190.708L31.024 190.708L31.024 192.708ZM20.872 192.708L20.872 190.708L18.872 190.708L18.872 192.708L20.872 192.708ZM20.872 213.732L20.872 215.732L22.872 215.732L22.872 213.732L20.872 213.732ZM35.128 212.22L34.4623 210.334L33.128 210.805L33.128 212.22L35.128 212.22ZM35.128 230.076L33.128 230.076L33.128 232.076L35.128 232.076L35.128 230.076ZM35.2 230.076L35.2 232.076L35.2396 232.076L35.2791 232.074L35.2 230.076ZM-1.93601 192.42C-1.93601 209.629 4.9954 217.072 8.04368 219.708L10.6603 216.683C8.38058 214.711 2.06399 208.33 2.06399 192.42L-1.93601 192.42ZM8.57854 216.351C6.53798 217.207 2.54995 218.171 0.779127 218.368L1.22085 222.343C3.33803 222.108 7.70201 221.056 10.1254 220.04L8.57854 216.351ZM-1.00001 220.356L-1.00001 230.436L2.99999 230.436L2.99999 220.356L-1.00001 220.356ZM0.99999 232.436L31.024 232.436L31.024 228.436L0.99999 228.436L0.99999 232.436ZM33.024 230.436L33.024 192.708L29.024 192.708L29.024 230.436L33.024 230.436ZM31.024 190.708L20.872 190.708L20.872 194.708L31.024 194.708L31.024 190.708ZM18.872 192.708L18.872 213.732L22.872 213.732L22.872 192.708L18.872 192.708ZM20.872 211.732L20.728 211.732L20.728 215.732L20.872 215.732L20.872 211.732ZM20.728 211.732C20.9995 211.732 21.0726 211.815 20.8919 211.72C20.7529 211.648 20.5238 211.499 20.2283 211.236C19.6409 210.713 18.872 209.806 18.1063 208.383C16.5787 205.544 15.096 200.703 15.096 192.996L11.096 192.996C11.096 201.2 12.6733 206.727 14.5837 210.278C15.5369 212.05 16.5815 213.344 17.5669 214.222C18.0578 214.66 18.5549 215.013 19.04 215.266C19.4834 215.498 20.0785 215.732 20.728 215.732L20.728 211.732ZM15.096 192.996C15.096 185.936 16.8682 181.388 19.2018 178.639C21.5185 175.909 24.5427 174.764 27.496 174.764L27.496 170.764C23.4653 170.764 19.2895 172.354 16.1522 176.05C13.0318 179.727 11.096 185.295 11.096 192.996L15.096 192.996ZM27.496 174.764L28.288 174.764L28.288 170.764L27.496 170.764L27.496 174.764ZM28.288 174.764C31.6365 174.764 34.6157 175.663 36.8051 178.146C39.041 180.681 40.76 185.207 40.76 193.14L44.76 193.14C44.76 184.728 42.951 179.067 39.8049 175.5C36.6123 171.88 32.3555 170.764 28.288 170.764L28.288 174.764ZM40.76 193.14C40.76 201.263 39.198 205.487 37.7398 207.671C36.3378 209.77 34.9132 210.174 34.4623 210.334L35.7936 214.106C36.5668 213.833 38.9582 213.049 41.0662 209.892C43.118 206.82 44.76 201.72 44.76 193.14L40.76 193.14ZM33.128 212.22L33.128 230.076L37.128 230.076L37.128 212.22L33.128 212.22ZM35.128 232.076L35.2 232.076L35.2 228.076L35.128 228.076L35.128 232.076ZM35.2791 232.074C39.3561 231.913 45.0223 230.347 49.627 224.718C54.1943 219.135 57.504 209.811 57.504 194.58L53.504 194.58C53.504 209.3 50.2976 217.581 46.531 222.185C42.8017 226.744 38.3158 227.951 35.1208 228.077L35.2791 232.074ZM57.504 194.58L57.504 191.484L53.504 191.484L53.504 194.58L57.504 194.58ZM57.504 191.484C57.504 175.744 53.3993 166.075 47.5719 160.356C41.7556 154.648 34.5491 153.196 29.008 153.196L29.008 157.196C33.9068 157.196 39.9484 158.479 44.7701 163.211C49.5807 167.932 53.504 176.407 53.504 191.484L57.504 191.484ZM29.008 153.196L26.992 153.196L26.992 157.196L29.008 157.196L29.008 153.196ZM26.992 153.196C21.2417 153.196 13.956 154.989 8.10273 160.744C2.22711 166.522 -1.936 176.026 -1.93601 190.908L2.06399 190.908C2.064 176.773 6.00087 168.421 10.9072 163.597C15.836 158.75 22.0143 157.196 26.992 157.196L26.992 153.196ZM-1.93601 190.908L-1.93601 192.42L2.06399 192.42L2.06399 190.908L-1.93601 190.908ZM54.568 245.274L56.568 245.274L56.568 243.274L54.568 243.274L54.568 245.274ZM0.999989 245.274L0.999989 243.274L-1.00001 243.274L-1.00001 245.274L0.999989 245.274ZM0.999987 302.442L-1.00001 302.442L-1.00001 304.442L0.999987 304.442L0.999987 302.442ZM13.456 302.442L13.456 304.442L15.456 304.442L15.456 302.442L13.456 302.442ZM13.456 261.834L13.456 259.834L11.456 259.834L11.456 261.834L13.456 261.834ZM22.24 261.834L24.24 261.834L24.24 259.834L22.24 259.834L22.24 261.834ZM22.24 300.786L20.24 300.786L20.24 302.786L22.24 302.786L22.24 300.786ZM34.48 300.786L34.48 302.786L36.48 302.786L36.48 300.786L34.48 300.786ZM34.48 261.834L34.48 259.834L32.48 259.834L32.48 261.834L34.48 261.834ZM42.4 261.834L44.4 261.834L44.4 259.834L42.4 259.834L42.4 261.834ZM42.4 301.722L40.4 301.722L40.4 303.722L42.4 303.722L42.4 301.722ZM54.568 301.722L54.568 303.722L56.568 303.722L56.568 301.722L54.568 301.722ZM54.568 243.274L0.999989 243.274L0.999989 247.274L54.568 247.274L54.568 243.274ZM-1.00001 245.274L-1.00001 302.442L2.99999 302.442L2.99999 245.274L-1.00001 245.274ZM0.999987 304.442L13.456 304.442L13.456 300.442L0.999987 300.442L0.999987 304.442ZM15.456 302.442L15.456 261.834L11.456 261.834L11.456 302.442L15.456 302.442ZM13.456 263.834L22.24 263.834L22.24 259.834L13.456 259.834L13.456 263.834ZM20.24 261.834L20.24 300.786L24.24 300.786L24.24 261.834L20.24 261.834ZM22.24 302.786L34.48 302.786L34.48 298.786L22.24 298.786L22.24 302.786ZM36.48 300.786L36.48 261.834L32.48 261.834L32.48 300.786L36.48 300.786ZM34.48 263.834L42.4 263.834L42.4 259.834L34.48 259.834L34.48 263.834ZM40.4 261.834L40.4 301.722L44.4 301.722L44.4 261.834L40.4 261.834ZM42.4 303.722L54.568 303.722L54.568 299.722L42.4 299.722L42.4 303.722ZM56.568 301.722L56.568 245.274L52.568 245.274L52.568 301.722L56.568 301.722Z" fill="#1F2326"/>
</svg>
