<svg width="30" height="250" viewBox="0 0 55 282" fill="none" xmlns="http://www.w3.org/2000/svg">
<path d="M54.568 61.056L54.568 63.056L56.568 63.056L56.568 61.056L54.568 61.056ZM54.568 44.208L56.568 44.208L56.568 42.208L54.568 42.208L54.568 44.208ZM23.824 17.496L24.0051 19.4878L25.824 19.3224L25.824 17.496L23.824 17.496ZM23.824 0.503998L25.824 0.503998L25.824 -1.496L23.824 -1.496L23.824 0.503998ZM-1.79199 32.976C-1.79199 44.8656 2.1527 52.5101 7.85969 57.1296C13.4875 61.6849 20.5315 63.056 26.344 63.056L26.344 59.056C21.0685 59.056 15.0445 57.7991 10.3763 54.0204C5.78732 50.3059 2.20801 43.9104 2.20801 32.976L-1.79199 32.976ZM26.344 63.056L54.568 63.056L54.568 59.056L26.344 59.056L26.344 63.056ZM56.568 61.056L56.568 44.208L52.568 44.208L52.568 61.056L56.568 61.056ZM54.568 42.208L26.776 42.208L26.776 46.208L54.568 46.208L54.568 42.208ZM26.776 42.208C23.011 42.208 20.2579 41.2745 18.4564 39.6143C16.6837 37.9807 15.528 35.3614 15.528 31.32L11.528 31.32C11.528 36.1346 12.9283 39.9593 15.7457 42.5557C18.5342 45.1255 22.405 46.208 26.776 46.208L26.776 42.208ZM15.528 31.32L15.528 30.456L11.528 30.456L11.528 31.32L15.528 31.32ZM15.528 30.456C15.528 25.1712 17.3009 22.615 19.0099 21.2911C20.8238 19.8858 22.923 19.5862 24.0051 19.4878L23.6429 15.5042C22.3491 15.6218 19.3003 16.0062 16.5602 18.1289C13.7152 20.333 11.528 24.1488 11.528 30.456L15.528 30.456ZM25.824 17.496L25.824 0.503998L21.824 0.503998L21.824 17.496L25.824 17.496ZM23.824 -1.496L23.392 -1.496L23.392 2.504L23.824 2.504L23.824 -1.496ZM23.392 -1.496C17.9413 -1.496 11.6013 0.146227 6.61227 4.90709C1.59396 9.69593 -1.79199 17.3857 -1.79199 28.944L2.20801 28.944C2.20801 18.1823 5.33807 11.6521 9.37376 7.8009C13.4388 3.92177 18.6908 2.504 23.392 2.504L23.392 -1.496ZM-1.79199 28.944L-1.79199 32.976L2.20801 32.976L2.20801 28.944L-1.79199 28.944ZM54.568 75.8509L56.568 75.8509L56.568 73.8509L54.568 73.8509L54.568 75.8509ZM1.00001 75.8509L1.00001 73.8509L-0.999988 73.8509L-0.999988 75.8509L1.00001 75.8509ZM1.00001 133.019L-0.999991 133.019L-0.999991 135.019L1.00001 135.019L1.00001 133.019ZM13.456 133.019L13.456 135.019L15.456 135.019L15.456 133.019L13.456 133.019ZM13.456 92.4109L13.456 90.4109L11.456 90.4109L11.456 92.4109L13.456 92.4109ZM22.24 92.4109L24.24 92.4109L24.24 90.4109L22.24 90.4109L22.24 92.4109ZM22.24 131.363L20.24 131.363L20.24 133.363L22.24 133.363L22.24 131.363ZM34.48 131.363L34.48 133.363L36.48 133.363L36.48 131.363L34.48 131.363ZM34.48 92.4109L34.48 90.4109L32.48 90.4109L32.48 92.4109L34.48 92.4109ZM42.4 92.4109L44.4 92.4109L44.4 90.4109L42.4 90.4109L42.4 92.4109ZM42.4 132.299L40.4 132.299L40.4 134.299L42.4 134.299L42.4 132.299ZM54.568 132.299L54.568 134.299L56.568 134.299L56.568 132.299L54.568 132.299ZM54.568 73.8509L1.00001 73.8509L1.00001 77.8509L54.568 77.8509L54.568 73.8509ZM-0.999988 75.8509L-0.999991 133.019L3.00001 133.019L3.00001 75.8509L-0.999988 75.8509ZM1.00001 135.019L13.456 135.019L13.456 131.019L1.00001 131.019L1.00001 135.019ZM15.456 133.019L15.456 92.4109L11.456 92.4109L11.456 133.019L15.456 133.019ZM13.456 94.4109L22.24 94.4109L22.24 90.4109L13.456 90.4109L13.456 94.4109ZM20.24 92.4109L20.24 131.363L24.24 131.363L24.24 92.4109L20.24 92.4109ZM22.24 133.363L34.48 133.363L34.48 129.363L22.24 129.363L22.24 133.363ZM36.48 131.363L36.48 92.4109L32.48 92.4109L32.48 131.363L36.48 131.363ZM34.48 94.4109L42.4 94.4109L42.4 90.4109L34.48 90.4109L34.48 94.4109ZM40.4 92.4109L40.4 132.299L44.4 132.299L44.4 92.4109L40.4 92.4109ZM42.4 134.299L54.568 134.299L54.568 130.299L42.4 130.299L42.4 134.299ZM56.568 132.299L56.568 75.8509L52.568 75.8509L52.568 132.299L56.568 132.299ZM1.00001 167.425L1.00001 165.425L-0.999992 165.425L-0.999992 167.425L1.00001 167.425ZM1.00001 184.345L-0.999993 184.345L-0.999993 186.345L1.00001 186.345L1.00001 184.345ZM41.896 184.345L43.896 184.345L43.896 182.345L41.896 182.345L41.896 184.345ZM41.896 207.457L39.896 207.457L39.896 209.457L41.896 209.457L41.896 207.457ZM54.568 207.457L54.568 209.457L56.568 209.457L56.568 207.457L54.568 207.457ZM54.568 144.385L56.568 144.385L56.568 142.385L54.568 142.385L54.568 144.385ZM41.896 144.385L41.896 142.385L39.896 142.385L39.896 144.385L41.896 144.385ZM41.896 167.425L41.896 169.425L43.896 169.425L43.896 167.425L41.896 167.425ZM-0.999992 167.425L-0.999993 184.345L3.00001 184.345L3.00001 167.425L-0.999992 167.425ZM1.00001 186.345L41.896 186.345L41.896 182.345L1.00001 182.345L1.00001 186.345ZM39.896 184.345L39.896 207.457L43.896 207.457L43.896 184.345L39.896 184.345ZM41.896 209.457L54.568 209.457L54.568 205.457L41.896 205.457L41.896 209.457ZM56.568 207.457L56.568 144.385L52.568 144.385L52.568 207.457L56.568 207.457ZM54.568 142.385L41.896 142.385L41.896 146.385L54.568 146.385L54.568 142.385ZM39.896 144.385L39.896 167.425L43.896 167.425L43.896 144.385L39.896 144.385ZM41.896 165.425L1.00001 165.425L1.00001 169.425L41.896 169.425L41.896 165.425ZM1 241.703L1 239.703L-0.999995 239.703L-0.999995 241.703L1 241.703ZM1 258.623L-0.999996 258.623L-0.999996 260.623L1 260.623L1 258.623ZM41.896 258.623L43.896 258.623L43.896 256.623L41.896 256.623L41.896 258.623ZM41.896 281.735L39.896 281.735L39.896 283.735L41.896 283.735L41.896 281.735ZM54.568 281.735L54.568 283.735L56.568 283.735L56.568 281.735L54.568 281.735ZM54.568 218.663L56.568 218.663L56.568 216.663L54.568 216.663L54.568 218.663ZM41.896 218.663L41.896 216.663L39.896 216.663L39.896 218.663L41.896 218.663ZM41.896 241.703L41.896 243.703L43.896 243.703L43.896 241.703L41.896 241.703ZM-0.999995 241.703L-0.999996 258.623L3 258.623L3 241.703L-0.999995 241.703ZM1 260.623L41.896 260.623L41.896 256.623L1 256.623L1 260.623ZM39.896 258.623L39.896 281.735L43.896 281.735L43.896 258.623L39.896 258.623ZM41.896 283.735L54.568 283.735L54.568 279.735L41.896 279.735L41.896 283.735ZM56.568 281.735L56.568 218.663L52.568 218.663L52.568 281.735L56.568 281.735ZM54.568 216.663L41.896 216.663L41.896 220.663L54.568 220.663L54.568 216.663ZM39.896 218.663L39.896 241.703L43.896 241.703L43.896 218.663L39.896 218.663ZM41.896 239.703L1 239.703L1 243.703L41.896 243.703L41.896 239.703Z" fill="white"/>
</svg>
